<svg width="100" height="64" viewBox="0 0 100 64" fill="none" xmlns="http://www.w3.org/2000/svg">
<circle cx="24" cy="50" r="10" fill="white"/>
<circle cx="76" cy="50" r="10" fill="white"/>
<path d="M68 1H7V37H93L68 1Z" fill="white"/>
<path d="M72.7273 0H9.09091C4.09091 0 0 4.06857 0 9.14286V50.2857H9.09091C9.09091 57.8286 15.1818 64 22.7273 64C30.2727 64 36.3636 57.8286 36.3636 50.2857H61.3636C61.3636 57.8286 67.4545 64 75 64C82.5455 64 88.6364 57.8286 88.6364 50.2857H100V27.4286L72.7273 0ZM9.09091 27.4286V9.14286H27.2727V27.4286H9.09091ZM22.7273 57.1429C18.9545 57.1429 15.9091 54.08 15.9091 50.2857C15.9091 46.4914 18.9545 43.4286 22.7273 43.4286C26.5 43.4286 29.5455 46.4914 29.5455 50.2857C29.5455 54.08 26.5 57.1429 22.7273 57.1429ZM54.5455 27.4286H36.3636V9.14286H54.5455V27.4286ZM75 57.1429C71.2273 57.1429 68.1818 54.08 68.1818 50.2857C68.1818 46.4914 71.2273 43.4286 75 43.4286C78.7727 43.4286 81.8182 46.4914 81.8182 50.2857C81.8182 54.08 78.7727 57.1429 75 57.1429ZM63.6364 27.4286V9.14286H68.1818L86.3636 27.4286H63.6364Z" fill="url(#paint0_linear_35_13)"/>
<defs>
<linearGradient id="paint0_linear_35_13" x1="50" y1="0" x2="50" y2="64" gradientUnits="userSpaceOnUse">
<stop offset="0.491279" stop-color="#CB4539"/>
<stop offset="1" stop-color="#65221C"/>
</linearGradient>
</defs>
</svg>
